<svg xmlns="http://www.w3.org/2000/svg" width="128" height="128" fill="none" viewBox="32 32 192 192">
<path fill="#008cff" d="M102.2 151c.8 5.2 2.4 9.2 4.4 12 4 4.8 10.8 7.2 20.8 7.2 6 0 10.4-.8 14.4-2 6.8-2.4 10.4-6.8 10.4-13.6 0-4-1.6-6.8-5.2-8.8-3.2-2-8.8-4-16-5.6l-12.4-2.8c-12.4-2.8-20.8-5.6-25.6-8.8-8-5.2-11.6-13.6-11.6-25.2 0-10.4 4-19.2 11.6-26 7.6-6.8 18.8-10.4 33.6-10.4 12.4 0 22.8 3.2 31.6 9.6 8.8 6.4 13.2 16 13.6 28.4h-23.2c-.4-6.8-3.6-12-9.2-14.8-4-2-8.8-2.8-14.4-2.8-6.4 0-11.6 1.2-15.2 3.6-3.6 2.4-5.6 6-5.6 10.4 0 4 2 7.2 5.6 9.2 2.4 1.2 7.6 2.8 15.6 4.8l20.4 4.8c8.8 2 15.6 4.8 20 8.4 6.8 5.6 10.4 13.2 10.4 23.6 0 10.8-4 19.6-12.4 26.4-8 7.2-19.6 10.4-34.8 10.4-15.2 0-27.2-3.6-36-10.4-9.6-6-14-15.6-14-27.6h23.2Z"></path>
<path fill="#008cff" d="M117 56h23v144h-23z"></path>
<circle cx="128" cy="128" r="84" stroke="#008cff" stroke-width="24"></circle></svg>