<svg xmlns="http://www.w3.org/2000/svg" width="28" height="28" viewBox="-1 -1 18 18" color="currentColor"><path d="M8.71967 6.28033C8.42678 5.98744 8.42678 5.51256 8.71967 5.21967L11.7197 2.21967C12.0126 1.92678 12.4874 1.92678 12.7803 2.21967L15.7803 5.21967C16.0732 5.51256 16.0732 5.98744 15.7803 6.28033C15.4874 6.57322 15.0126 6.57322 14.7197 6.28033L13 4.56066V12.75C13 13.1642 12.6642 13.5 12.25 13.5C11.8358 13.5 11.5 13.1642 11.5 12.75V4.56066L9.78033 6.28033C9.48744 6.57322 9.01256 6.57322 8.71967 6.28033Z" fill="currentColor"></path><path d="M7.28033 9.71967C7.57322 10.0126 7.57322 10.4874 7.28033 10.7803L4.28033 13.7803C4.13968 13.921 3.94891 14 3.75 14C3.55109 14 3.36032 13.921 3.21967 13.7803L0.21967 10.7803C-0.0732233 10.4874 -0.0732232 10.0126 0.21967 9.71967C0.512563 9.42678 0.987437 9.42678 1.28033 9.71967L3 11.4393V3.25C3 2.83579 3.33579 2.5 3.75 2.5C4.16421 2.5 4.5 2.83579 4.5 3.25V11.4393L6.21967 9.71967C6.51256 9.42678 6.98744 9.42678 7.28033 9.71967Z" fill="currentColor"></path></svg>